#!OML:ASF F:\VICON\USERDATA\INSTALL\rory3\rory3.ASF
:FULLY-SPECIFIED
:DEGREES
70
root -1.73276 17.5925 35.9813 -174.788 1.62477 -188.717
lowerback 24.1673 -2.4903 -8.11825
upperback 2.98188 -4.26615 3.7882
thorax -9.18306 -1.37949 10.2453
lowerneck -9.63948 1.14894 -0.521
upperneck 11.9466 2.92347 -7.16798
head 5.2919 1.04841 -1.92413
rclavicle -6.2816e-014 5.88403e-014
rhumerus -44.5258 -44.511 -35.0509
rradius 107.817
rwrist -1.479
rhand -11.8429 3.5398
rfingers 7.12502
rthumb 14.2083 -25.9542
lclavicle -6.2816e-014 5.88403e-014
lhumerus -37.3911 0.78257 78.8105
lradius 47.7207
lwrist 10.1639
lhand -10.764 53.3794
lfingers 7.12502
lthumb 15.2478 82.7974
rfemur -46.1266 -8.19362 15.9544
rtibia 60.8373
rfoot -11.9809 -9.69895
rtoes 7.4057
lfemur -8.80439 -0.358628 -35.4924
ltibia 29.7153
lfoot -21.4792 -1.22151
ltoes -8.20849
71
root -1.72379 17.5764 35.8035 -174.743 0.830961 -188.928
lowerback 24.0591 -2.65147 -8.02129
upperback 3.15013 -4.41571 3.73916
thorax -8.91165 -1.46948 10.1493
lowerneck -9.72945 1.09581 -0.292949
upperneck 11.6457 2.77838 -7.17681
head 5.21063 0.985682 -1.97463
rclavicle -3.18055e-014 1.74931e-014
rhumerus -43.0615 -44.2549 -36.3748
rradius 108.435
rwrist 0.539164
rhand -11.7234 3.66752
rfingers 7.12502
rthumb 14.3235 -25.8184
lclavicle -3.18055e-014 1.74931e-014
lhumerus -36.2464 -0.168008 78.939
lradius 48.2839
lwrist 10.6375
lhand -10.8675 53.1226
lfingers 7.12502
lthumb 15.1481 82.5482
rfemur -46.5098 -8.63792 15.8487
rtibia 58.7704
rfoot -12.1583 -10.0905
rtoes 8.77397
lfemur -7.82496 -0.826807 -35.6943
ltibia 29.2825
lfoot -21.5081 -1.27982
ltoes -6.37634
72
root -1.7153 17.5652 35.623 -174.843 -0.211243 -189.031
lowerback 24.1132 -1.9143 -7.3101
upperback 3.26355 -4.89747 3.8121
thorax -8.84967 -2.39162 10.0707
lowerneck -9.82236 0.966592 -0.161754
upperneck 11.3883 2.55119 -7.16909
head 5.13907 0.880048 -2.01
rclavicle 5.32743e-014 1.90833e-014
rhumerus -41.2187 -44.3583 -37.636
rradius 108.572
rwrist 2.81031
rhand -11.593 3.94168
rfingers 7.12502
rthumb 14.4492 -25.5353
lclavicle 5.32743e-014 1.90833e-014
lhumerus -35.0972 -1.1326 79.1331
lradius 48.7676
lwrist 11.2197
lhand -11.0898 53.0556
lfingers 7.12502
lthumb 14.934 82.4973
rfemur -46.6133 -9.10407 15.7705
rtibia 56.6519
rfoot -11.9378 -10.7447
rtoes 10.0399
lfemur -6.62638 -1.49419 -35.7455
ltibia 28.8534
lfoot -21.3509 -1.20696
ltoes -4.83679
73
root -1.72934 17.509 35.4835 -174.446 1.00333 -189.006
lowerback 23.9927 -2.33899 -7.83475
upperback 3.30937 -3.93206 3.70482
thorax -8.82145 -1.24884 9.8462
lowerneck -9.73996 0.811908 -0.151936
upperneck 11.0239 2.28948 -7.09583
head 5.00138 0.763282 -2.00721
rclavicle -4.69132e-014 -1.59028e-014
rhumerus -39.192 -44.2617 -39.1969
rradius 108.342
rwrist 5.1355
rhand -12.0301 3.97147
rfingers 7.12502
rthumb 14.028 -25.5352
lclavicle -4.69132e-014 -1.59028e-014
lhumerus -34.261 -1.84746 79.2803
lradius 49.6653
lwrist 11.53
lhand -11.1964 53.3015
lfingers 7.12502
lthumb 14.8313 82.7507
rfemur -48.0639 -8.0668 15.8898
rtibia 54.5362
rfoot -10.7361 -11.1798
rtoes 11.3255
lfemur -6.56977 -1.08887 -36.1408
ltibia 28.5884
lfoot -21.4697 -0.18062
ltoes -3.76584
74
root -1.72219 17.4745 35.312 -174.353 0.637115 -189.117
lowerback 24.239 -2.37441 -7.86358
upperback 3.16858 -4.0081 3.76437
thorax -9.08746 -1.26225 9.98508
lowerneck -9.56997 0.77422 -0.264199
upperneck 10.998 2.23963 -7.00376
head 4.96065 0.745139 -1.96386
rclavicle -5.08889e-014 2.8625e-014
rhumerus -37.1894 -43.189 -40.8998
rradius 108.098
rwrist 7.2329
rhand -12.9327 3.95429
rfingers 7.12502
rthumb 13.158 -25.6105
lclavicle -5.08889e-014 2.8625e-014
lhumerus -33.7454 -2.35816 79.4354
lradius 50.4625
lwrist 11.7673
lhand -11.1153 53.1789
lfingers 7.12502
lthumb 14.9094 82.6224
rfemur -48.5149 -7.96361 15.7166
rtibia 52.3992
rfoot -9.98379 -11.9065
rtoes 13.1013
lfemur -5.81988 -1.23152 -36.2802
ltibia 28.3164
lfoot -21.866 -0.373638
ltoes -2.76078
75
root -1.71355 17.44 35.1446 -174.29 0.272241 -189.149
lowerback 24.2628 -1.44334 -7.43355
upperback 3.08619 -4.27802 3.88615
thorax -9.24579 -2.04065 10.0822
lowerneck -9.34641 0.742631 -0.100103
upperneck 10.8201 2.17688 -7.1566
head 4.86866 0.721551 -2.04245
rclavicle -5.08889e-014 -3.97569e-014
rhumerus -35.4401 -41.8756 -42.4739
rradius 107.939
rwrist 9.16808
rhand -13.5443 3.99131
rfingers 7.12502
rthumb 12.5685 -25.6106
lclavicle -5.08889e-014 -3.97569e-014
lhumerus -32.9251 -3.0911 79.6128
lradius 51.0262
lwrist 11.8883
lhand -11.0353 53.6758
lfingers 7.12502
lthumb 14.9865 83.1135
rfemur -48.8988 -7.84422 15.6001
rtibia 50.2323
rfoot -9.02696 -12.9379
rtoes 13.2239
lfemur -5.14262 -1.44759 -36.3204
ltibia 28.2218
lfoot -22.3323 -0.693128
ltoes -0.27954
76
root -1.70064 17.4051 34.9693 -174.336 -0.12695 -189.402
lowerback 24.3282 -1.41482 -7.56156
upperback 3.18247 -4.29559 3.84784
thorax -9.16178 -2.0607 10.1181
lowerneck -9.37333 0.6437 0.0506447
upperneck 10.7105 2.01023 -7.1774
head 4.83414 0.644332 -2.08506
rclavicle 7.15625e-015 7.95139e-015
rhumerus -33.8749 -40.5804 -44.0073
rradius 107.568
rwrist 11.0746
rhand -13.9563 4.07303
rfingers 7.12502
rthumb 12.1712 -25.5529
lclavicle 7.15625e-015 7.95139e-015
lhumerus -31.867 -4.02614 79.7577
lradius 51.3888
lwrist 11.9661
lhand -11.0347 54.1126
lfingers 7.12502
lthumb 14.9871 83.5503
rfemur -49.0867 -7.71944 15.1865
rtibia 48.062
rfoot -8.06348 -14.0088
rtoes 13.3784
lfemur -4.25481 -1.58091 -36.5554
ltibia 28.0385
lfoot -22.5758 -0.932948
ltoes 2.36981
